# xmcd
#
# Track frame offsets: 
#        150
#        18988
#        41761
#        58232
#        75093
#        95038
#        124347
#        141009
#
# Disc length: 2130 seconds
#
# Revision: 1
# Processed by: cddbd v1.5.2PL0 Copyright (c) Steve Scherf et al.
# Submitted via: ExactAudioCopy v0.99pb5
#
DISCID=66085008
DTITLE=Dream Machine - Dream Machine
DYEAR=1981
DGENRE=Funk
TTITLE0=The Force
TTITLE1=Shakedown
TTITLE2=All My Love
TTITLE3=Living Too High
TTITLE4=Dream Machine
TTITLE5=Simple Love Song
TTITLE6=Don't Walk Away
TTITLE7=Just Say When
EXTD=Original RCA Record 1981
EXTT0=
EXTT1=
EXTT2=
EXTT3=
EXTT4=
EXTT5=
EXTT6=
EXTT7=
PLAYORDER=
